<?xml version="1.0" encoding="UTF-8" standalone="no"?>
<!-- Created with Inkscape (http://www.inkscape.org/) -->

<svg
   xmlns:dc="http://purl.org/dc/elements/1.1/"
   xmlns:cc="http://creativecommons.org/ns#"
   xmlns:rdf="http://www.w3.org/1999/02/22-rdf-syntax-ns#"
   xmlns:svg="http://www.w3.org/2000/svg"
   xmlns="http://www.w3.org/2000/svg"
   xmlns:sodipodi="http://sodipodi.sourceforge.net/DTD/sodipodi-0.dtd"
   xmlns:inkscape="http://www.inkscape.org/namespaces/inkscape"
   width="1000"
   height="520.51617"
   viewBox="0 0 264.58333 137.71991"
   version="1.1"
   id="svg8"
   inkscape:version="0.92.4 (5da689c313, 2019-01-14)"
   sodipodi:docname="A.svg">
  <defs
     id="defs2" />
  <sodipodi:namedview
     id="base"
     pagecolor="#ffffff"
     bordercolor="#666666"
     borderopacity="1.0"
     inkscape:pageopacity="0.82352941"
     inkscape:pageshadow="2"
     inkscape:zoom="0.7"
     inkscape:cx="432.60271"
     inkscape:cy="212.04394"
     inkscape:document-units="px"
     inkscape:current-layer="layer1"
     showgrid="false"
     units="px"
     inkscape:window-width="1920"
     inkscape:window-height="1017"
     inkscape:window-x="1912"
     inkscape:window-y="-8"
     inkscape:window-maximized="1"
     inkscape:pagecheckerboard="true"
     showguides="true"
     inkscape:guide-bbox="true"
     fit-margin-top="0"
     fit-margin-left="0"
     fit-margin-right="0"
     fit-margin-bottom="0">
    <inkscape:grid
       type="xygrid"
       id="grid82"
       originx="149.82367"
       originy="-85.085755" />
    <sodipodi:guide
       position="137.65166,132.9888"
       orientation="1,0"
       id="guide86"
       inkscape:locked="false" />
    <sodipodi:guide
       position="48.92765,85.877612"
       orientation="0,1"
       id="guide88"
       inkscape:locked="false" />
  </sodipodi:namedview>
  <metadata
     id="metadata5">
    <rdf:RDF>
      <cc:Work
         rdf:about="">
        <dc:format>image/svg+xml</dc:format>
        <dc:type
           rdf:resource="http://purl.org/dc/dcmitype/StillImage" />
        <dc:title></dc:title>
      </cc:Work>
    </rdf:RDF>
  </metadata>
  <g
     inkscape:label="Layer 1"
     inkscape:groupmode="layer"
     id="layer1"
     transform="translate(149.82367,-74.194329)">
    <path
       style="opacity:1;fill:#002e3d;fill-opacity:1;stroke:none;stroke-width:0.19633305;stroke-miterlimit:4;stroke-dasharray:none;stroke-opacity:1"
       d="m -17.532001,74.194329 c -68.971802,0 -132.291669,28.592911 -132.291669,69.917611 0,41.51161 57.713026,67.8023 132.291669,67.8023 77.382064,0 132.291661,-26.4776 132.291661,-67.8023 0,-41.3247 -63.319862,-69.917611 -132.291661,-69.917611 z"
       id="path90"
       inkscape:connector-curvature="0"
       sodipodi:nodetypes="sssss" />
    <g
       id="layer1-7"
       transform="matrix(0.63433459,0,0,0.63433459,-155.50207,-88.755949)"
       style="fill:#6fb946;fill-opacity:1;stroke:none">
      <g
         id="g200"
         transform="matrix(0,3.8062854,3.8062854,0,314.46863,373.86959)"
         style="fill:#6fb946;fill-opacity:1;stroke:none">
        <path
           style="fill:#6fb946;fill-opacity:1;fill-rule:nonzero;stroke:none"
           id="path202"
           d="M 0,0 -7.866,2.362 0,4.729 Z M 2.584,-17.322 V -18.78 H -8.307 v 1.439 c 0,2.183 0.911,4.606 5.418,4.606 3.999,0 5.473,-2.145 5.473,-4.587 M 0,-55.741 -7.961,-53.325 0,-50.951 Z m -13.957,62.41 v -8.126 l 13.489,-4.644 c -1.121,0.218 -2.012,0.253 -2.406,0.253 -5.65,0 -11.083,-3.221 -11.083,-10.789 v -8.681 l 13.421,0.016 c -3.812,-0.746 -4.841,-4.206 -6.154,-8.51 -0.493,-1.614 -1.286,-2.498 -2.027,-2.176 -0.643,0.275 -0.845,1.259 -0.676,2.459 0.256,1.826 0.874,3.283 1.641,4.692 l -4.777,1.922 c -0.225,-0.436 -2.09,-3.546 -2.09,-7.44 0,-5.446 2.658,-8.912 6.597,-8.912 3.502,0 5.542,2.153 6.693,6.102 1.229,4.244 1.731,5.322 2.964,5.196 C 2.686,-32.085 3.978,-34.718 0,-41.16 l 3.975,-1.908 -17.932,-5.921 v -8.12 l 22.294,-7.675 v 6.407 l -3.155,0.995 v 8.074 l 3.155,0.952 v 6.73 l -2.179,-0.767 c 1.319,2.271 2.527,5.095 2.527,8.465 0,5.157 -2.835,7.948 -5.555,8.621 h 5.207 v 8.662 c 0,5.166 -2.478,7.87 -5.128,9.278 l 5.128,-1.764 v 6.4 l -3.155,1.03 v 8.067 l 3.155,0.929 v 6.738 L -13.957,6.669"
           inkscape:connector-curvature="0" />
      </g>
    </g>
  </g>
</svg>
